<svg xmlns="http://www.w3.org/2000/svg" width="492.261" height="302.999" viewBox="0 0 492.261 302.999"><defs><style>.a{fill:#c6d6fb;}.b{fill:none;stroke:#c6d6fb;stroke-miterlimit:10;stroke-width:1.118px;}.c{fill:#95b3ef;}</style></defs><g transform="translate(-375.44 -3578.635)"><path class="a" d="M432.143,363.919c-3.819-2.211-3.819-5.806,0-7.992a15.5,15.5,0,0,1,13.888.019c3.819,2.2,3.819,5.791,0,7.991A15.4,15.4,0,0,1,432.143,363.919Z" transform="translate(418.805 3364.901)"/><path class="b" d="M357.042,535.714c-65.731,0-132.127-16.57-182.165-45.459L169.4,487.1C115.032,455.7,83.867,411.862,83.9,366.807c.027-39.606,23.5-74.916,66.079-99.422,37.6-21.637,88.744-33.552,144.025-33.552,65.675,0,131.959,16.67,181.854,45.736l5.708,3.324c54.349,31.662,85.413,75.679,85.226,120.765-.164,39.488-23.632,74.594-66.081,98.852C463.24,523.922,412.218,535.714,357.042,535.714Z" transform="translate(292.102 3345.361)"/><path class="b" d="M175.706,455.976c-87.517-50.529-96.274-128.037-19.459-172.243s211.106-38.756,298.424,12.111l5.709,3.326c87.32,50.868,96.023,128.34,19.341,172.161S268.7,509.664,181.179,459.136Z" transform="translate(299.496 3352.756)"/><path class="c" d="M175.03,294.624c-59.925,34.488-49.9,96.8,22.282,138.473S377.484,480.9,437.294,446.724s49.784-96.492-22.282-138.473S234.955,260.138,175.03,294.624Z" transform="translate(311.326 3359.578)"/><path class="a" d="M261.105,440.27c-3.819-2.209-3.819-5.806,0-7.991a15.5,15.5,0,0,1,13.888.018c3.819,2.2,3.819,5.793,0,7.992A15.4,15.4,0,0,1,261.105,440.27Z" transform="translate(356.564 3418.132)"/><path class="a" d="M139.491,422.8c-3.819-2.211-3.819-5.806,0-7.991a15.494,15.494,0,0,1,13.888.018c3.819,2.2,3.819,5.791,0,7.992A15.4,15.4,0,0,1,139.491,422.8Z" transform="translate(311.598 3411.672)"/><path class="a" d="M117.477,270.446c-3.819-2.211-3.819-5.808,0-7.992a15.5,15.5,0,0,1,13.888.019c3.819,2.194,3.819,5.791,0,7.991A15.408,15.408,0,0,1,117.477,270.446Z" transform="translate(303.458 3355.339)"/><path class="a" d="M220.717,259.337c-3.819-2.209-3.819-5.806,0-7.991a15.5,15.5,0,0,1,13.888.018c3.819,2.2,3.819,5.793,0,7.992A15.4,15.4,0,0,1,220.717,259.337Z" transform="translate(341.631 3351.232)"/></g></svg>