<svg xmlns="http://www.w3.org/2000/svg" width="111" height="61" viewBox="0 0 111 61"><defs><style>.a,.b{fill:#fff;}.a{font-size:22px;font-family:Domine-Regular, Domine;}</style></defs><g transform="translate(-375 -5120)"><text class="a" transform="translate(415 5176)"><tspan x="0" y="0">icon.jp</tspan></text><g transform="translate(0 5108)"><path class="b" d="M490.577,666.078a17.417,17.417,0,0,0,8.827-2.4,17.625,17.625,0,0,0,5.539-5.143c.057-.488.1-.976.112-1.466,0-.068,0-.136,0-.2.007-.451,0-.9-.032-1.348-.012-.175-.036-.348-.052-.523-.033-.341-.071-.682-.125-1.02-.032-.2-.071-.391-.109-.586-.062-.315-.13-.629-.21-.94q-.076-.3-.162-.59c-.09-.308-.192-.614-.3-.917-.067-.186-.132-.374-.2-.558-.127-.321-.27-.635-.417-.948-.073-.156-.139-.314-.218-.469-.219-.432-.457-.856-.714-1.268-.017-.027-.03-.057-.048-.084l0-.006a18.267,18.267,0,0,1-8.141,10.622,18.063,18.063,0,0,1-5.582,2.2l.074.066-1.666.205c-.421.052-.843.084-1.266.106-.141.008-.282.009-.423.013-.17,0-.339.015-.509.015-.088,0-.175-.009-.263-.011-.3,0-.592-.019-.888-.037-.192-.013-.383-.023-.575-.042-.308-.029-.613-.071-.918-.116-.179-.026-.357-.048-.534-.079-.326-.058-.648-.13-.971-.205-.154-.036-.308-.065-.461-.1-.379-.1-.752-.214-1.124-.337-.092-.03-.187-.054-.279-.086q-.7-.242-1.376-.539c-.074-.033-.145-.073-.218-.106-.34-.154-.678-.311-1.008-.486A17.523,17.523,0,0,0,490.577,666.078Z" transform="translate(-98.115 -598.078)"/><path class="b" d="M488.266,625.961A17.479,17.479,0,0,0,472.1,643.374c0,.217.006.427.012.642l0,.078a17.176,17.176,0,0,0,1.544,6.485c.389.3.789.589,1.2.853.051.033.105.059.156.091q.587.366,1.2.683c.136.07.275.129.412.195.336.161.673.315,1.017.453.155.062.311.117.467.174.341.125.685.242,1.034.344.154.045.308.089.464.13q.548.145,1.105.252c.141.027.282.058.423.081.41.069.823.119,1.238.158.106.01.211.026.317.033.418.031.837.048,1.257.048.112,0,.224,0,.336,0a18.288,18.288,0,0,1-4.037-18.012l-.1.035.667-1.575c.17-.4.358-.788.554-1.173.044-.086.088-.172.133-.257.2-.376.409-.745.634-1.1.027-.045.058-.087.086-.132q.314-.492.659-.962c.051-.07.1-.139.151-.208q.379-.506.792-.982c.051-.058.1-.115.155-.173q.378-.426.783-.829c.048-.048.094-.1.143-.145q.451-.44.933-.847c.07-.059.141-.117.211-.175.308-.254.623-.5.947-.732.028-.021.054-.042.082-.061.345-.245.7-.475,1.062-.7C488.185,626.016,488.224,625.986,488.266,625.961Z" transform="translate(-97.09 -592.826)"/><path class="b" d="M508.322,646.382c.113.4.211.8.3,1.2.017.079.031.158.047.236.074.374.139.751.189,1.129.007.047.015.093.021.14.052.411.088.825.112,1.239,0,.039.009.078.011.117a17.485,17.485,0,0,0-7.619-22.377,17.15,17.15,0,0,0-6.338-2.011c-.472.183-.937.382-1.388.607-.064.033-.124.071-.188.1-.408.21-.807.434-1.2.676-.152.095-.3.2-.448.3-.29.195-.578.394-.855.606-.162.124-.319.255-.476.384-.253.208-.5.423-.742.645q-.231.214-.453.435c-.233.232-.456.472-.675.717-.136.152-.272.3-.4.459-.225.271-.437.554-.645.839-.1.144-.214.283-.314.43q-.409.6-.766,1.235c-.022.04-.049.077-.071.117l-.008.017A18.208,18.208,0,0,1,504.1,638.9l.021-.114,1.029,1.318,0,0,.006.008c.256.328.5.667.727,1.011.054.079.107.158.159.239.226.346.442.7.642,1.058.021.037.04.076.061.114.184.336.356.678.519,1.025.036.077.073.153.109.231.17.375.328.754.472,1.139.023.063.045.126.067.189q.191.526.348,1.062C508.281,646.246,508.3,646.313,508.322,646.382Z" transform="translate(-100.563 -592.848)"/><path class="b" d="M476.629,598.058c-1.846,0-3.342.539-3.342,1.2s1.5,1.2,3.342,1.2,3.342-.539,3.342-1.2S478.474,598.058,476.629,598.058Z" transform="translate(-97.378 -586.058)"/><path class="b" d="M476.338,602.823a5.979,5.979,0,0,1-4.251-1.283v28.545a19.178,19.178,0,0,1,8.5-9.343v-19.2A5.977,5.977,0,0,1,476.338,602.823Z" transform="translate(-97.087 -586.903)"/></g></g></svg>