<svg xmlns="http://www.w3.org/2000/svg" width="17.259" height="17.259" viewBox="0 0 17.259 17.259"><defs><style>.a{fill:#fff;}</style></defs><g transform="translate(0)"><path class="a" d="M11.865,0H5.393A5.394,5.394,0,0,0,0,5.393v6.472a5.394,5.394,0,0,0,5.393,5.393h6.472a5.394,5.394,0,0,0,5.393-5.393V5.393A5.394,5.394,0,0,0,11.865,0Zm3.775,11.865a3.78,3.78,0,0,1-3.775,3.775H5.393a3.78,3.78,0,0,1-3.775-3.775V5.393A3.78,3.78,0,0,1,5.393,1.618h6.472a3.78,3.78,0,0,1,3.775,3.775Z"/><g transform="translate(4.315 4.315)"><path class="a" d="M132.315,128a4.315,4.315,0,1,0,4.315,4.315A4.315,4.315,0,0,0,132.315,128Zm0,7.011a2.7,2.7,0,1,1,2.7-2.7A2.7,2.7,0,0,1,132.315,135.011Z" transform="translate(-128 -128)"/></g><g transform="translate(12.693 3.416)"><circle class="a" cx="0.575" cy="0.575" r="0.575"/></g></g></svg>