<svg xmlns="http://www.w3.org/2000/svg" width="12.908" height="18.192" viewBox="0 0 12.908 18.192"><defs><style>.a{fill:#373737;}</style></defs><g transform="translate(-311.121 -4.008)"><path class="a" d="M317.575,4.008a6.461,6.461,0,0,0-6.454,6.454c0,3.395,5.739,11.169,5.985,11.5a.587.587,0,0,0,.942,0c.242-.332,5.981-8.105,5.981-11.5A6.462,6.462,0,0,0,317.575,4.008Zm0,16.605c-1.819-2.55-5.281-7.868-5.281-10.151a5.281,5.281,0,0,1,10.561,0C322.856,12.743,319.394,18.062,317.575,20.613Zm0,0" transform="translate(0)"/><path class="a" d="M392.536,81.906a3.52,3.52,0,1,0,3.521,3.52A3.52,3.52,0,0,0,392.536,81.906Zm0,5.867a2.347,2.347,0,1,1,2.347-2.347A2.347,2.347,0,0,1,392.536,87.774Zm0,0" transform="translate(-74.961 -74.965)"/></g></svg>