<svg xmlns="http://www.w3.org/2000/svg" width="15.754" height="15.777" viewBox="0 0 15.754 15.777"><defs><style>.a{fill:#373737;}</style></defs><g transform="translate(-0.345 0)"><g transform="translate(0.344 0)"><path class="a" d="M12.8,36.267a1.552,1.552,0,0,0-1.125-.516,1.6,1.6,0,0,0-1.139.513L9.485,37.312c-.087-.047-.173-.09-.256-.133-.12-.06-.233-.117-.33-.176a11.436,11.436,0,0,1-2.74-2.5,6.747,6.747,0,0,1-.9-1.418c.273-.25.526-.509.773-.759.093-.093.186-.19.28-.283a1.528,1.528,0,0,0,0-2.3L5.4,28.831c-.1-.1-.21-.21-.31-.316-.2-.206-.41-.42-.626-.619a1.576,1.576,0,0,0-1.115-.489A1.631,1.631,0,0,0,2.22,27.9l-.007.007L1.081,29.044a2.436,2.436,0,0,0-.723,1.548,5.837,5.837,0,0,0,.426,2.471,14.337,14.337,0,0,0,2.547,4.249A15.67,15.67,0,0,0,8.55,41.4a8.13,8.13,0,0,0,2.93.866c.07,0,.143.007.21.007a2.509,2.509,0,0,0,1.921-.826c0-.007.01-.01.013-.017a7.57,7.57,0,0,1,.583-.6c.143-.137.29-.28.433-.43a1.661,1.661,0,0,0,.5-1.152A1.6,1.6,0,0,0,14.63,38.1Zm1.192,3.506s0,0,0,0c-.13.14-.263.266-.406.406a8.757,8.757,0,0,0-.643.666,1.605,1.605,0,0,1-1.252.529c-.05,0-.1,0-.153,0a7.222,7.222,0,0,1-2.6-.779,14.791,14.791,0,0,1-4.915-3.849,13.518,13.518,0,0,1-2.4-3.992,4.754,4.754,0,0,1-.373-2.084,1.529,1.529,0,0,1,.46-.989l1.135-1.135a.757.757,0,0,1,.506-.236.712.712,0,0,1,.486.233l.01.01c.2.19.4.386.6.6.1.107.21.213.316.323l.909.909a.635.635,0,0,1,0,1.032c-.1.1-.19.193-.286.286-.28.286-.546.553-.836.812-.007.007-.013.01-.017.017a.679.679,0,0,0-.173.756l.01.03a7.3,7.3,0,0,0,1.076,1.755l0,0a12.222,12.222,0,0,0,2.957,2.69,4.547,4.547,0,0,0,.41.223c.12.06.233.117.33.176.013.007.027.017.04.023a.722.722,0,0,0,.33.083.712.712,0,0,0,.506-.23L11.167,36.9a.753.753,0,0,1,.5-.25.678.678,0,0,1,.479.243l.007.007,1.835,1.835A.658.658,0,0,1,13.994,39.773Z" transform="translate(-0.344 -26.493)"/><path class="a" d="M245.314,86.817a4.285,4.285,0,0,1,3.49,3.49.447.447,0,0,0,.443.373.6.6,0,0,0,.077-.007.45.45,0,0,0,.37-.519,5.182,5.182,0,0,0-4.222-4.222.452.452,0,0,0-.519.366A.445.445,0,0,0,245.314,86.817Z" transform="translate(-236.799 -83.064)"/><path class="a" d="M256.25,6.96A8.533,8.533,0,0,0,249.3.007a.449.449,0,1,0-.147.886,7.621,7.621,0,0,1,6.213,6.213.447.447,0,0,0,.443.373.594.594,0,0,0,.077-.007A.441.441,0,0,0,256.25,6.96Z" transform="translate(-240.503 0)"/></g></g></svg>