<svg xmlns="http://www.w3.org/2000/svg" width="17.481" height="15.626" viewBox="0 0 17.481 15.626"><defs><style>.a{fill:none;stroke:#b91e2e;}</style></defs><g transform="translate(-23.646 -55.125)"><g transform="translate(20.874 54.625)"><g transform="translate(0)"><path class="a" d="M87.43,41.206H73.876a1.469,1.469,0,0,0-1.464,1.464v8.421a1.469,1.469,0,0,0,1.464,1.464h7.343l3.605,2.784.509.349a.453.453,0,0,0,.325.145.467.467,0,0,0,.47-.47l-1-2.807h2.3a1.469,1.469,0,0,0,1.464-1.464V42.67A1.469,1.469,0,0,0,87.43,41.206Z" transform="translate(-69.14 -40.206)"/></g></g></g></svg>